<svg xmlns="http://www.w3.org/2000/svg" version="1.1" xmlns:xlink="http://www.w3.org/1999/xlink" width="512" height="512" x="0" y="0" viewBox="0 0 512 512" style="enable-background:new 0 0 512 512" xml:space="preserve" class=""><g><path d="M35.932 193.136 193.137 35.931c34.575-34.575 91.152-34.575 125.727 0l157.204 157.204c34.575 34.575 34.575 91.153 0 125.728L318.864 476.068c-34.575 34.576-91.152 34.576-125.727 0L35.932 318.864c-34.575-34.575-34.575-91.153 0-125.728z" style="fill-rule:evenodd;clip-rule:evenodd;stroke-width:20.0001;stroke-linecap:round;stroke-linejoin:round;stroke-miterlimit:22.9256;" fill-rule="evenodd" clip-rule="evenodd" fill="none" stroke="#393939" stroke-width="20.0001" stroke-linecap="round" stroke-linejoin="round" stroke-miterlimit="22.9256" data-original="#020288" class="" opacity="1"></path><path d="M78.358 235.562c-11.157 11.157-11.157 29.718 0 40.876l157.205 157.205c11.157 11.157 29.718 11.157 40.875 0l157.204-157.204c11.157-11.157 11.157-29.719 0-40.876L276.438 78.358c-11.157-11.157-29.718-11.157-40.875 0L78.358 235.562z" style="fill-rule:evenodd;clip-rule:evenodd;stroke-width:20.0001;stroke-linecap:round;stroke-linejoin:round;stroke-miterlimit:22.9256;" fill-rule="evenodd" clip-rule="evenodd" fill="none" stroke="#393939" stroke-width="20.0001" stroke-linecap="round" stroke-linejoin="round" stroke-miterlimit="22.9256" data-original="#020288" class="" opacity="1"></path><path d="M175.936 175.936h160.127v160.127H175.936z" style="fill-rule:evenodd;clip-rule:evenodd;" transform="rotate(-45.001 255.998 256.004)" fill="#252525" data-original="#e2c4ff" class="" opacity="1"></path></g></svg>