<svg xmlns="http://www.w3.org/2000/svg" version="1.1" xmlns:xlink="http://www.w3.org/1999/xlink" width="512" height="512" x="0" y="0" viewBox="0 0 32 32" style="enable-background:new 0 0 512 512" xml:space="preserve" class=""><g><path d="M26.47 28.3h-2.692a1.357 1.357 0 0 1-1.35-1.361v-7.502a1.376 1.376 0 0 1 1.523-1.36V15.41a7.885 7.885 0 0 0-1.821-5.044 2.177 2.177 0 0 1-1.271-.525 7.362 7.362 0 0 0-9.715-.002 2.196 2.196 0 0 1-1.267.519 7.885 7.885 0 0 0-1.828 5.052v2.666a1.376 1.376 0 0 1 1.522 1.36v7.503a1.357 1.357 0 0 1-1.35 1.36H5.53a2.214 2.214 0 0 1-2.16-1.745A2.866 2.866 0 0 1 .957 23.73v-1.093a2.873 2.873 0 0 1 2.41-2.814 2.19 2.19 0 0 1 1.474-1.628V15.41a11.072 11.072 0 0 1 2.733-7.303 2.12 2.12 0 0 1 .723-1.51A11.69 11.69 0 0 1 23.7 6.593a2.121 2.121 0 0 1 .724 1.511 11.072 11.072 0 0 1 2.734 7.305v2.784a2.19 2.19 0 0 1 1.473 1.627 2.859 2.859 0 0 1 2.41 2.815v1.093a2.89 2.89 0 0 1-2.41 2.825 2.213 2.213 0 0 1-2.16 1.746zm-2.075-9.227c-.3.028-.974-.133-.966.364v7.502a.352.352 0 0 0 .35.36h2.691a1.212 1.212 0 0 0 1.21-1.21v-5.803a1.25 1.25 0 0 0-1.205-1.223h-.002l-2.022.013a.532.532 0 0 1-.056-.003zm-19.087.034a1.193 1.193 0 0 0-.988 1.18v5.803a1.212 1.212 0 0 0 1.21 1.21h2.692a.352.352 0 0 0 .35-.361v-7.502a.351.351 0 0 0-.35-.36c-.064-.01-2.962-.006-2.914.03zm-2.803 2.22c-.663.57-.547 1.624-.546 2.402a1.865 1.865 0 0 0 1.36 1.792v-4.667a1.907 1.907 0 0 0-.814.472zm26.175-.473v4.667a1.887 1.887 0 0 0 1.361-1.792v-1.093a1.855 1.855 0 0 0-1.36-1.782zm-3.729-2.778h1.207V15.41a10.083 10.083 0 0 0-2.032-6.086 2.136 2.136 0 0 1-.896.828c1.788 2.243 1.805 5.19 1.721 7.924zm-19.109 0H7.05c-.084-2.737-.067-5.679 1.72-7.924a2.128 2.128 0 0 1-.895-.829 10.082 10.082 0 0 0-2.032 6.087zM16 7.01a8.36 8.36 0 0 1 5.515 2.077 1.153 1.153 0 0 0 .738.284 1.165 1.165 0 0 0 .786-2.027 10.746 10.746 0 0 0-14.08.002 1.12 1.12 0 0 0-.382.912 1.158 1.158 0 0 0 1.916.822A8.353 8.353 0 0 1 16 7.01zm0 20.073a.5.5 0 0 1-.5-.5V19.79a.5.5 0 0 1 1 0v6.793a.5.5 0 0 1-.5.5zm2.22-1.253a.5.5 0 0 1-.5-.5v-4.287a.5.5 0 0 1 1 0v4.287a.5.5 0 0 1-.5.5zm-4.44 0a.5.5 0 0 1-.5-.5v-4.287a.5.5 0 0 1 1 0v4.287a.5.5 0 0 1-.5.5zm6.661-1.495a.5.5 0 0 1-.5-.5v-1.297a.5.5 0 0 1 1 0v1.297a.5.5 0 0 1-.5.5zm-8.882 0a.5.5 0 0 1-.5-.5v-1.297a.5.5 0 0 1 1 0v1.297a.5.5 0 0 1-.5.5z" fill="#000000" opacity="1" data-original="#000000" class=""></path></g></svg>