<svg xmlns="http://www.w3.org/2000/svg" version="1.1" xmlns:xlink="http://www.w3.org/1999/xlink" width="512" height="512" x="0" y="0" viewBox="0 0 64 64" style="enable-background:new 0 0 512 512" xml:space="preserve" class=""><g><path d="M13.2 45.147c-.042 2.993.342 4.491 1.785 6.964.397.681 1.063 1.821 2.321 2.078.168.034.338.051.509.051 1.328 0 2.739-1.035 4.202-3.085.56-.785.832-1.354 2.022-4.747l.643-1.852c.875-2.529 1.006-2.875 1.536-3.467.547-.608.953-.822 1.467-1.091.489-.256 1.044-.548 1.73-1.191 2.338-2.191 2.662-4.675 1.625-5.812-.558-.611-2.177-.862-3.42-.75l-.87.081c-.707.067-1.436.136-1.711.111-.164-.195-.165-.603-.153-1.219.018-.91.042-2.157-.9-3.188-.793-.87-1.923-1.215-2.526-1.343-.845-.179-1.491-.091-2.056-.009-.085-.024-.32-.232-.492-.385-.648-.574-1.626-1.442-3.654-1.896-3.015-.676-4.649.225-5.964.947-.812.446-1.433.859-2.205 1.655-.912.942-2.439 2.519-2.738 4.99l-.033.22c-.147.937-.538 3.425 1.42 5.011 1.586 1.284 2.912 1.577 4.083 1.834.869.192 1.619.356 2.386.922 1.585 1.167 1.287 3.065 1.091 4.321a7.41 7.41 0 0 0-.098.85zm-.102-6.378c-1.023-.753-2.004-.969-2.952-1.178-1.107-.244-2.151-.474-3.462-1.535-1.286-1.041-1.013-2.778-.882-3.612l.04-.273c.238-1.971 1.445-3.217 2.327-4.127.642-.663 1.145-.998 1.849-1.384.898-.493 1.819-.999 3.243-.999.491 0 1.041.06 1.671.201 1.65.369 2.422 1.055 2.986 1.555.466.413.948.838 1.785.731.402-.056.856-.118 1.447.007.726.154 1.356.477 1.728.886l.001.001c.538.589.523 1.346.508 2.148-.017.875-.036 1.868.811 2.503.453.339 1.11.278 2.695.126l.861-.08c1.127-.103 2.039.173 2.18.267.388.425.2 2.073-1.544 3.707-.538.504-.958.724-1.401.957-.57.299-1.159.608-1.886 1.418-.753.84-.961 1.443-1.837 3.978l-.642 1.846c-1.152 3.285-1.39 3.76-1.827 4.371-1.736 2.432-2.812 2.511-3.191 2.435-.601-.122-1.019-.84-1.325-1.365-1.201-2.058-1.62-3.303-1.58-6.186.002-.157.04-.375.081-.637.222-1.416.635-4.054-1.684-5.761zM27.138 51.3c.113.025.237.025.35.025.65 0 1.35-.3 2.075-.925.775-.675 1.012-1.412 1.312-2.35.163-.5.2-.725.225-.937.012-.125.037-.25.125-.5.163-.475.338-.75.5-1.012.212-.35.437-.712.55-1.325.288-1.688-.412-2.187-.862-2.337-.775-.25-1.575.287-2.35.812-.75.513-1.613 1.087-2 2.062-.187.462-.2.837-.2 1.113-.013.287-.013.412-.188.675a.542.542 0 0 1-.15.175c-.112.112-.237.237-.4.475-.187.262-.675.975-.675 1.837 0 .237.025.475.112.725.388 1.112 1.151 1.412 1.576 1.487zm.212-3.2a.908.908 0 0 1 .2-.225c.088-.075.212-.2.375-.438.425-.625.425-1.125.438-1.487 0-.212 0-.375.087-.575.225-.55.8-.937 1.463-1.388.275-.187.7-.475.925-.575.013.125 0 .325-.038.612-.062.325-.163.488-.35.787-.188.3-.425.675-.638 1.3-.137.4-.163.588-.2.8-.025.15-.038.312-.163.675-.288.888-.425 1.3-.875 1.675-.663.575-1.038.587-1.175.563-.175-.038-.312-.2-.413-.5-.161-.462.227-1.012.364-1.224zM.767 51.602H.752a.75.75 0 0 1-.75-.735l-.002-.2c0-.829.118-1.666.352-2.489a.75.75 0 0 1 1.443.411 7.586 7.586 0 0 0-.295 2.078l.002.171a.75.75 0 0 1-.735.764zm2.938 4.337a.751.751 0 0 1-1.084 1.038 9.839 9.839 0 0 1-1.585-2.18.748.748 0 0 1 .311-1.014.751.751 0 0 1 1.014.311 8.262 8.262 0 0 0 1.344 1.845zm11.706 4.407a.75.75 0 0 1-.731.768 24.45 24.45 0 0 1-2.581-.077c-.413-.035-.718-.399-.682-.812s.381-.729.812-.682c.768.066 1.572.093 2.412.072.389-.024.76.316.77.731zm-6.205-.535a.752.752 0 0 1-.936.498 14.978 14.978 0 0 1-2.439-.98.75.75 0 1 1 .684-1.336c.677.347 1.415.643 2.194.88a.753.753 0 0 1 .497.938zm20.299-3.496a.75.75 0 0 1 .333-1.007 56.16 56.16 0 0 0 2.181-1.156.75.75 0 1 1 .729 1.311c-.757.421-1.503.815-2.238 1.185a.747.747 0 0 1-1.005-.333zm8.808-5.222a.75.75 0 0 1-.198 1.042c-.712.485-1.414.946-2.109 1.388a.748.748 0 1 1-.803-1.267 75.318 75.318 0 0 0 2.068-1.361.75.75 0 0 1 1.042.198zm25.28-13.897a3.11 3.11 0 0 0-1.888-1.478 3.095 3.095 0 0 0-2.051.145c.297-2.252.347-4.546.12-6.846C58.41 15.247 47.427 4.264 33.659 2.9c-8.824-.872-17.441 2.195-23.663 8.418S.706 26.166 1.578 34.98a28.868 28.868 0 0 0 2.01 8.043 13.881 13.881 0 0 0-1.425 1.586.75.75 0 0 0 1.197.903c.259-.344.552-.679.863-1.008a29.304 29.304 0 0 0 15.265 14.513c-.407.084-.818.184-1.219.25a.75.75 0 0 0 .244 1.479 33.047 33.047 0 0 0 2.505-.513.735.735 0 0 0 .509-.465c1.976.648 4.032 1.116 6.167 1.328 1.011.1 2.016.15 3.014.15 7.212 0 14.029-2.588 19.455-7.44a.753.753 0 0 0 .059-1.06.754.754 0 0 0-1.06-.059c-5.858 5.24-13.431 7.689-21.321 6.916a27.442 27.442 0 0 1-3.066-.501 46.17 46.17 0 0 0 2.277-.87.75.75 0 1 0-.574-1.386c-.78.323-1.545.615-2.295.878a.75.75 0 0 0-.352 1.157C12.704 56.072 4.229 46.522 3.071 34.832c-.829-8.365 2.082-16.549 7.985-22.453C16.961 6.475 25.16 3.567 33.51 4.393c10.588 1.048 19.437 8.095 23.098 17.684-.779.818-1.432 1.876-2.011 2.838-.846 1.409-1.063 2.457-1.254 3.383-.133.64-.248 1.193-.569 1.777-.936 1.696-3.152 2.636-3.54 2.528-.004-.004-.394-.452-.607-2.864-.112-1.24-.347-3.818-1.818-6.08-.302-.469-.464-.977-.62-1.468-.248-.781-.505-1.588-1.289-2.155-.817-.588-1.584-.729-2.397-.878-.831-.152-1.772-.324-3.13-1.019-.592-.3-1.123-.577-1.606-.828-2.676-1.393-4.021-2.09-5.67-1.541-1.079.372-2.268 1.311-2.328 2.507-.057 1.708 2.284 2.887 4.155 3.831.385.2 2.333.88 3.363.67l.127-.025c.404-.082.958-.193 1.702-.098.199.024.425.051.459.059.167.186.403 1.323-.033 2.91-.32 1.163-1.196 3.22-3.469 3.925-2.491.768-3.038.384-3.141.254a7.074 7.074 0 0 0-.662-.698c-.278-.268-.566-.545-.811-.889-1.176-1.624-2.408-2.1-3.145-2.385-.169-.065-.4-.154-.46-.204-.365-.3-.464-.651-.62-1.298a9.138 9.138 0 0 0-.255-.906c-.874-2.404-3.408-4.033-5.39-4.529-1.234-.316-2.411.15-3.658.642-.529.208-1.075.422-1.636.58-1.29.363-2.935.634-3.47-.176-.369-.54-.176-2.087.328-2.628.566-.607 1.68-1.163 2.837-1.417.962-.211 2.159-.474 2.775-1.555.549-.964.501-2.334-.151-4.31a3.136 3.136 0 0 1-.129-.535A.75.75 0 1 0 17 9.71c.036.251.098.513.189.789.489 1.482.583 2.554.273 3.099-.266.467-.883.633-1.793.833-1.479.324-2.829 1.019-3.613 1.858-.993 1.066-1.235 3.377-.462 4.509.823 1.249 2.495 1.498 5.107.763.634-.179 1.215-.408 1.778-.629 1.061-.417 1.981-.778 2.743-.583 1.663.416 3.691 1.782 4.344 3.579.091.26.151.512.209.754.167.691.356 1.474 1.125 2.104.246.203.536.315.873.445.656.253 1.555.6 2.466 1.859.323.454.677.795.99 1.096.193.186.376.357.525.548.978 1.218 3.055.771 4.761.248 3.624-1.124 4.49-4.766 4.668-5.855.22-1.338.149-2.99-.695-3.6-.334-.257-.695-.3-1.199-.361-.97-.125-1.724.026-2.295.142-.515.105-2.054-.361-2.388-.533-1.007-.508-3.365-1.696-3.34-2.433.018-.372.646-.921 1.31-1.149.991-.33 1.87.085 4.497 1.451.487.253 1.023.532 1.617.834 1.551.794 2.655.996 3.541 1.158.752.137 1.249.228 1.79.618.365.264.511.68.739 1.393.177.557.377 1.188.789 1.827 1.271 1.954 1.482 4.282 1.586 5.431.266 3.016.841 3.705 1.312 3.968.234.131.51.197.826.197.261 0 .549-.045.863-.134 1.309-.373 3.085-1.57 3.95-3.137.431-.783.58-1.502.724-2.198.175-.847.356-1.723 1.072-2.914.391-.651.819-1.347 1.278-1.952a27.358 27.358 0 0 1 1.121 5.43 28.263 28.263 0 0 1-.276 7.589l-3.751 2.118-6.671-4.128a5.012 5.012 0 0 0-5.107-.102 1.736 1.736 0 0 0-.23 2.872l5.972 4.767L42.5 45.51l-1.183-.897a1.735 1.735 0 0 0-1.904-.128l-1.204.68a1.715 1.715 0 0 0-.87 1.298c-.068.553.123 1.09.527 1.475l2.5 2.378.743 3.368c.121.544.482.986.991 1.212.51.226 1.079.2 1.561-.074l1.204-.68a1.739 1.739 0 0 0 .874-1.699l-.159-1.475 5.719-3.23.999 7.577a1.735 1.735 0 0 0 2.576 1.286 5.012 5.012 0 0 0 2.55-4.426l-.09-7.845 5.071-2.863a3.107 3.107 0 0 0 1.477-1.888 3.103 3.103 0 0 0-.289-2.383zm-1.154 1.979c-.116.42-.389.769-.769.984l-5.458 3.081a.748.748 0 0 0-.381.662l.096 8.288a3.516 3.516 0 0 1-1.788 3.103.238.238 0 0 1-.352-.176l-1.144-8.678a.75.75 0 0 0-1.112-.556l-7.115 4.018a.751.751 0 0 0-.377.734l.211 1.964a.238.238 0 0 1-.12.233l-1.204.68a.236.236 0 0 1-.214.011.233.233 0 0 1-.137-.167l-.793-3.591a.746.746 0 0 0-.216-.381l-2.665-2.535a.233.233 0 0 1-.073-.203.232.232 0 0 1 .12-.177l1.204-.68a.236.236 0 0 1 .261.017l1.573 1.195c.24.182.563.201.823.056l7.115-4.017a.745.745 0 0 0 .378-.593.743.743 0 0 0-.28-.646l-6.841-5.461a.235.235 0 0 1-.089-.205.233.233 0 0 1 .121-.188 3.514 3.514 0 0 1 3.581.071l7.048 4.362a.744.744 0 0 0 .763.016l5.456-3.082a1.625 1.625 0 0 1 1.24-.151c.42.117.769.391.984.77.217.38.271.82.154 1.242z" fill="#000000" opacity="1" data-original="#000000"></path></g></svg>