<svg xmlns="http://www.w3.org/2000/svg" version="1.1" xmlns:xlink="http://www.w3.org/1999/xlink" width="512" height="512" x="0" y="0" viewBox="0 0 512 512" style="enable-background:new 0 0 512 512" xml:space="preserve" class=""><g><path d="m374.75 267.71-112-176a8 8 0 0 0-13.5 0l-112 176a8 8 0 0 0-.84 6.82L180.9 408H168a8 8 0 0 0-8 8v32a8 8 0 0 0 8 8h8v40a8 8 0 0 0 8 8h144a8 8 0 0 0 8-8v-40h8a8 8 0 0 0 8-8v-32a8 8 0 0 0-8-8h-12.9l44.49-133.47a8 8 0 0 0-.84-6.82ZM256 288a16 16 0 1 1-16 16 16.021 16.021 0 0 1 16-16Zm64 200H192v-32h128Zm16-64v16H176v-16Zm-21.77-16H197.77l-44.98-134.92L248 123.47v149.54a32 32 0 1 0 16 0V123.47l95.21 149.61Z" fill="#000000" opacity="1" data-original="#000000"></path><path d="M496 8h-48a8 8 0 0 0-8 8v16H288V16a8 8 0 0 0-8-8h-48a8 8 0 0 0-8 8v16H72V16a8 8 0 0 0-8-8H16a8 8 0 0 0-8 8v48a8 8 0 0 0 8 8h48a8 8 0 0 0 8-8V48h96.65a202.585 202.585 0 0 0-61.51 37.02C74.16 114.38 56 152.37 56 192h-8a8 8 0 0 0-8 8v32a8 8 0 0 0 8 8h32a8 8 0 0 0 8-8v-32a8 8 0 0 0-8-8h-8c0-70.09 64.74-129.86 152-141.82V64a8 8 0 0 0 8 8h48a8 8 0 0 0 8-8V50.18C375.26 62.14 440 121.91 440 192h-8a8 8 0 0 0-8 8v32a8 8 0 0 0 8 8h32a8 8 0 0 0 8-8v-32a8 8 0 0 0-8-8h-8c0-39.63-18.16-77.62-51.14-106.98A202.585 202.585 0 0 0 343.35 48H440v16a8 8 0 0 0 8 8h48a8 8 0 0 0 8-8V16a8 8 0 0 0-8-8ZM56 56H24V24h32Zm16 168H56v-16h16ZM272 56h-32V24h32Zm184 168h-16v-16h16Zm32-168h-32V24h32Z" fill="#000000" opacity="1" data-original="#000000"></path></g></svg>