<svg xmlns="http://www.w3.org/2000/svg" version="1.1" xmlns:xlink="http://www.w3.org/1999/xlink" width="512" height="512" x="0" y="0" viewBox="0 0 64 64" style="enable-background:new 0 0 512 512" xml:space="preserve" class=""><g><g data-name="11-design"><path d="M9 0H1a1 1 0 0 0-1 1v8a1 1 0 0 0 1 1h8a1 1 0 0 0 1-1V1a1 1 0 0 0-1-1zM8 8H2V2h6zM63 0h-8a1 1 0 0 0-1 1v8a1 1 0 0 0 1 1h8a1 1 0 0 0 1-1V1a1 1 0 0 0-1-1zm-1 8h-6V2h6zM9 54H1a1 1 0 0 0-1 1v8a1 1 0 0 0 1 1h8a1 1 0 0 0 1-1v-8a1 1 0 0 0-1-1zm-1 8H2v-6h6zM63 54h-8a1 1 0 0 0-1 1v8a1 1 0 0 0 1 1h8a1 1 0 0 0 1-1v-8a1 1 0 0 0-1-1zm-1 8h-6v-6h6zM12 4h4v2h-4zM18 4h4v2h-4zM24 4h4v2h-4zM30 4h4v2h-4zM36 4h4v2h-4zM42 4h4v2h-4zM48 4h4v2h-4zM12 58h4v2h-4zM18 58h4v2h-4zM24 58h4v2h-4zM30 58h4v2h-4zM36 58h4v2h-4zM42 58h4v2h-4zM48 58h4v2h-4zM58 12h2v4h-2zM58 18h2v4h-2zM58 24h2v4h-2zM58 30h2v4h-2zM58 36h2v4h-2zM58 42h2v4h-2zM58 48h2v4h-2zM4 12h2v4H4zM4 18h2v4H4zM4 24h2v4H4zM4 30h2v4H4zM4 36h2v4H4zM4 42h2v4H4zM4 48h2v4H4zM48.91 48.91a1 1 0 0 0 .268-.932l-2.122-9.193a.995.995 0 0 0-.268-.482L26.99 18.504l-2.828-2.829a3.073 3.073 0 0 0-4.242 0l-4.243 4.243a3 3 0 0 0 0 4.243l2.828 2.829 19.8 19.799a1.003 1.003 0 0 0 .482.267l9.193 2.121a1.001 1.001 0 0 0 .931-.267zm-4.95-4.95a3.623 3.623 0 0 0-1.15 1.972l-1.781-.41.087-1.522H43a1 1 0 0 0 1-1v-1.884l1.52-.087.412 1.782a3.619 3.619 0 0 0-1.972 1.15zM17.09 21.333l4.243-4.243a1 1 0 0 1 1.414 0l2.121 2.121-5.657 5.658-2.121-2.122a1.002 1.002 0 0 1 0-1.414zm3.535 4.95 2.122-2.122L39.01 40.424a1 1 0 1 0 1.414-1.414L24.16 22.747l2.121-2.122 18.445 18.446-1.784.102a1 1 0 0 0-.943.998V42h-1.828a1 1 0 0 0-.998.943l-.102 1.786zm24.162 19.944a2.857 2.857 0 0 1 1.44-1.44c.056.038.642 2.082.642 2.082s-2.044-.586-2.082-.642zM22.222 33.293l-9.314 9.313a1 1 0 0 0 0 1.415l7.071 7.07a1 1 0 0 0 1.415 0l9.313-9.313a1 1 0 0 0-1.414-1.414l-8.606 8.607-5.658-5.658 8.607-8.606a1 1 0 0 0-1.414-1.414zM41 31.071a.997.997 0 0 0 .707-.293l9.385-9.384a1 1 0 0 0 0-1.415l-7.071-7.07a1 1 0 0 0-1.415 0l-9.313 9.313a1 1 0 0 0 1.414 1.414l1.535-1.535-.707.707 1.415 1.414 1.414-1.415-1.415-1.414 6.364-6.364 5.658 5.658-8.678 8.677A1 1 0 0 0 41 31.071z" fill="#000000" opacity="1" data-original="#000000" class=""></path><path d="m39.063 19.27 1.414-1.414 2.828 2.828-1.414 1.414zM21.388 36.948l1.414-1.414 1.414 1.414-1.414 1.414zM17.852 40.484l1.414-1.414 2.828 2.828-1.414 1.414z" fill="#000000" opacity="1" data-original="#000000" class=""></path></g></g></svg>